<svg width="24" height="24" viewBox="0 0 24 24" fill="none" xmlns="http://www.w3.org/2000/svg">
<path fill-rule="evenodd" clip-rule="evenodd" d="M5.36517 5.36517C5.71664 5.01369 6.28649 5.01369 6.63796 5.36517L12.0016 10.7288L17.3652 5.36517C17.7167 5.01369 18.2865 5.01369 18.638 5.36517C18.9895 5.71664 18.9895 6.28649 18.638 6.63796L13.2744 12.0016L18.6379 17.3651C18.9894 17.7166 18.9894 18.2865 18.6379 18.6379C18.2865 18.9894 17.7166 18.9894 17.3651 18.6379L12.0016 13.2744L6.63796 18.638C6.28649 18.9895 5.71664 18.9895 5.36517 18.638C5.01369 18.2865 5.01369 17.7167 5.36517 17.3652L10.7288 12.0016L5.36517 6.63796C5.01369 6.28649 5.01369 5.71664 5.36517 5.36517Z" fill="#111111"/>
</svg>
