<svg width="17" height="16" viewBox="0 0 17 16" fill="none" xmlns="http://www.w3.org/2000/svg">
<g id="Edit">
<path id="Vector (Stroke)" fill-rule="evenodd" clip-rule="evenodd" d="M10.7547 2.3426C11.0225 2.25559 11.3109 2.25559 11.5787 2.3426C11.7717 2.40529 11.9194 2.51154 12.0358 2.61028C12.1417 2.70018 12.2572 2.81572 12.3756 2.93417L13.5655 4.12408C13.6845 4.24304 13.8004 4.35891 13.8905 4.46506C13.9895 4.58161 14.0959 4.72956 14.1586 4.92273C14.2457 5.19057 14.2456 5.47903 14.1586 5.74678C14.0959 5.93984 13.9896 6.08769 13.8907 6.20418C13.8007 6.31025 13.6849 6.42599 13.5661 6.54477L13.5449 6.56592L6.30474 13.8061C6.17971 13.9311 6.01015 14.0014 5.83334 14.0014L3.16667 14.0014C2.98986 14.0014 2.82029 13.9311 2.69526 13.8061C2.57024 13.6811 2.5 13.5115 2.5 13.3347V10.668C2.5 10.4912 2.57024 10.3217 2.69526 10.1966L8.02859 4.86331L9.94431 2.94758L9.95718 2.93472C10.0758 2.81609 10.1914 2.70042 10.2974 2.61045C10.4138 2.51164 10.5616 2.40532 10.7547 2.3426ZM8.5 6.27752L3.83333 10.9442V12.668L5.55719 12.668L10.2239 8.00137L8.5 6.27752ZM11.1667 7.05856L12.6138 5.6114C12.7499 5.47532 12.8245 5.39987 12.8742 5.34132C12.8762 5.33901 12.878 5.33682 12.8798 5.33473C12.878 5.3326 12.8761 5.33034 12.8741 5.32798C12.8236 5.26851 12.7474 5.19163 12.6077 5.05185L11.4478 3.89199C11.3086 3.75277 11.2321 3.67702 11.1729 3.6268C11.1708 3.62495 11.1687 3.6232 11.1667 3.62155C11.1647 3.62324 11.1625 3.62503 11.1603 3.62693C11.101 3.67726 11.0244 3.75315 10.885 3.89255L10.8817 3.89584L9.44281 5.33471L11.1667 7.05856Z" fill="#CCCCCC"/>
</g>
</svg>
