<svg width="16" height="16" viewBox="0 0 16 16" fill="none" xmlns="http://www.w3.org/2000/svg">
<g id="ic-warning">
<path id="Vector" d="M7.44238 8.83463V5.5013C7.44238 5.19575 7.69238 4.94575 7.99794 4.94575C8.30349 4.94575 8.55349 5.19575 8.55349 5.5013V8.83463C8.55349 9.14019 8.30349 9.39019 7.99794 9.39019C7.69238 9.39019 7.44238 9.14019 7.44238 8.83463ZM7.99794 9.94575C7.53683 9.94575 7.16461 10.318 7.16461 10.7791C7.16461 11.2402 7.53683 11.6124 7.99794 11.6124C8.45905 11.6124 8.83127 11.2402 8.83127 10.7791C8.83127 10.318 8.45905 9.94575 7.99794 9.94575ZM14.4313 12.6569C14.0424 13.4069 13.2257 13.8346 12.2035 13.8346H3.79794C2.77016 13.8346 1.95905 13.4069 1.57016 12.6569C1.17572 11.9013 1.28683 10.9346 1.84794 10.1235L6.31461 3.05686C6.70905 2.49019 7.33127 2.16797 7.99794 2.16797C8.66461 2.16797 9.28683 2.49019 9.66461 3.04019L14.1535 10.1346C14.7146 10.9457 14.8202 11.9069 14.4257 12.6569H14.4313ZM13.2368 10.7569C13.2368 10.7569 13.2257 10.7457 13.2257 10.7346L8.74238 3.6513C8.58127 3.42352 8.30349 3.27908 7.99794 3.27908C7.69238 3.27908 7.41461 3.42352 7.24238 3.67352L2.77016 10.7346C2.42572 11.2235 2.34794 11.7569 2.54794 12.1402C2.74238 12.518 3.18683 12.7235 3.79238 12.7235H12.1924C12.7979 12.7235 13.2424 12.518 13.4368 12.1402C13.6368 11.7569 13.559 11.2235 13.2313 10.7569H13.2368Z" fill="#EB5757"/>
</g>
</svg>
