<svg width="16" height="16" viewBox="0 0 16 16" fill="none" xmlns="http://www.w3.org/2000/svg">
<g id="ic-help">
<path id="Vector" d="M7.9987 1.33203C6.68016 1.33203 5.39123 1.72302 4.2949 2.45557C3.19857 3.18811 2.34409 4.2293 1.8395 5.44748C1.33492 6.66565 1.2029 8.00609 1.46013 9.2993C1.71737 10.5925 2.35231 11.7804 3.28466 12.7127C4.21701 13.6451 5.40489 14.28 6.6981 14.5373C7.99131 14.7945 9.33175 14.6625 10.5499 14.1579C11.7681 13.6533 12.8093 12.7988 13.5418 11.7025C14.2744 10.6062 14.6654 9.31724 14.6654 7.9987C14.6635 6.23117 13.9605 4.53659 12.7106 3.28676C11.4608 2.03694 9.76622 1.33394 7.9987 1.33203ZM7.9987 13.5543C6.89992 13.5543 5.82581 13.2284 4.9122 12.618C3.99859 12.0075 3.28652 11.1399 2.86604 10.1247C2.44555 9.10957 2.33553 7.99254 2.54989 6.91486C2.76426 5.83719 3.29337 4.84729 4.07033 4.07033C4.84729 3.29337 5.83719 2.76425 6.91487 2.54989C7.99254 2.33553 9.10957 2.44555 10.1247 2.86603C11.1399 3.28652 12.0075 3.99859 12.618 4.9122C13.2284 5.8258 13.5543 6.89991 13.5543 7.9987C13.5526 9.47163 12.9668 10.8838 11.9253 11.9253C10.8838 12.9668 9.47163 13.5526 7.9987 13.5543Z" fill="#AAAAAA"/>
<path id="Vector_2" d="M8.47498 4.03533C8.09074 3.97803 7.69581 3.99055 7.31814 4.072C6.94047 4.15346 6.58928 4.30185 6.28944 4.50669C5.98959 4.71153 5.74841 4.96781 5.58297 5.25739C5.41752 5.54696 5.33186 5.86276 5.33203 6.18244C5.33203 6.32708 5.40223 6.46579 5.52719 6.56807C5.65214 6.67035 5.82162 6.7278 5.99833 6.7278C6.17505 6.7278 6.34452 6.67035 6.46948 6.56807C6.59444 6.46579 6.66464 6.32708 6.66464 6.18244C6.66447 6.02198 6.70756 5.86346 6.79083 5.7182C6.8741 5.57293 6.9955 5.4445 7.14638 5.34204C7.29726 5.23959 7.4739 5.16565 7.6637 5.12549C7.85351 5.08533 8.0518 5.07994 8.24444 5.1097C8.50765 5.15152 8.74966 5.25662 8.93956 5.41156C9.12945 5.5665 9.2586 5.76425 9.31052 5.97956C9.36296 6.20556 9.32675 6.43935 9.20708 6.64749C9.08741 6.85564 8.8904 7.02748 8.64422 7.13846C8.23655 7.33178 7.89968 7.61103 7.6687 7.94713C7.43772 8.28324 7.32108 8.66389 7.33094 9.04943V9.45463C7.33094 9.59927 7.40114 9.73799 7.52609 9.84027C7.65105 9.94254 7.82052 10 7.99724 10C8.17395 10 8.34343 9.94254 8.46839 9.84027C8.59334 9.73799 8.66354 9.59927 8.66354 9.45463V9.04943C8.65518 8.85965 8.70805 8.67141 8.81683 8.50367C8.92562 8.33594 9.08647 8.19462 9.2832 8.09395C9.76595 7.87693 10.1547 7.54283 10.396 7.13759C10.6373 6.73236 10.7193 6.27589 10.6306 5.83096C10.542 5.38604 10.2872 4.9745 9.9012 4.65296C9.51518 4.33141 9.01693 4.11564 8.47498 4.03533Z" fill="#AAAAAA"/>
<path id="Vector_3" d="M8.66536 11.3346C8.66536 10.9664 8.36689 10.668 7.9987 10.668C7.63051 10.668 7.33203 10.9664 7.33203 11.3346C7.33203 11.7028 7.63051 12.0013 7.9987 12.0013C8.36689 12.0013 8.66536 11.7028 8.66536 11.3346Z" fill="#AAAAAA"/>
</g>
</svg>
