<svg width="180" height="22" viewBox="0 0 180 22" fill="none" xmlns="http://www.w3.org/2000/svg">
<path d="M163.91 21.7055V0.296875H169.419V11.149H169.624L173.617 5.64903H179.826L174.404 12.6867L180.001 21.7055H173.675L170.323 15.9393L169.419 17.063V21.7055H163.91Z" fill="#00A896"/>
<path d="M153.385 22.0005C148.283 22.0005 145.223 18.6591 145.223 13.721C145.223 8.7828 148.283 5.44141 153.385 5.44141C158.486 5.44141 161.517 8.7828 161.517 13.721C161.517 18.6591 158.486 22.0005 153.385 22.0005ZM153.414 17.8608C154.959 17.8608 155.891 16.2344 155.891 13.6914C155.891 11.1188 154.959 9.52205 153.414 9.52205C151.811 9.52205 150.849 11.1188 150.849 13.6914C150.849 16.2344 151.811 17.8608 153.414 17.8608Z" fill="#00A896"/>
<path d="M135.314 22.0005C130.213 22.0005 127.152 18.6591 127.152 13.721C127.152 8.7828 130.213 5.44141 135.314 5.44141C140.416 5.44141 143.447 8.7828 143.447 13.721C143.447 18.6591 140.416 22.0005 135.314 22.0005ZM135.343 17.8608C136.888 17.8608 137.821 16.2344 137.821 13.6914C137.821 11.1188 136.888 9.52205 135.343 9.52205C133.74 9.52205 132.778 11.1188 132.778 13.6914C132.778 16.2344 133.74 17.8608 135.343 17.8608Z" fill="#00A896"/>
<path d="M108.379 21.7055V0.296875H117.415C122.225 0.296875 124.761 2.39634 124.761 5.6786C124.761 8.04419 123.1 9.84795 120.709 10.3506V10.5576C123.362 10.6463 125.577 12.6275 125.577 15.6732C125.577 19.1625 122.779 21.7055 118.173 21.7055H108.379ZM116.745 17.1813C118.727 17.1813 119.718 16.4125 119.718 14.9635C119.718 13.3963 118.61 12.5092 116.832 12.5092H113.917V17.1813H116.745ZM116.395 8.99042C117.94 8.99042 119.048 8.22161 119.048 6.86139C119.048 5.50118 117.998 4.73236 116.483 4.73236H113.917V8.99042H116.395Z" fill="#00A896"/>
<path d="M88.7906 12.6275V21.7055H83.2812V0.296875H88.5865V8.66515H88.7614C89.461 6.6544 91.1808 5.44204 93.5128 5.44204C96.8651 5.44204 99.0513 7.92591 99.0513 11.4743V21.7055H93.542V12.6275C93.542 10.9716 92.6966 9.9958 91.1808 9.9958C89.7525 9.9958 88.7906 10.9716 88.7906 12.6275Z" fill="#00A896"/>
<path d="M73.3416 22.0005C68.2404 22.0005 65.1797 18.6591 65.1797 13.721C65.1797 8.7828 68.2404 5.44141 73.3416 5.44141C77.9181 5.44141 80.8331 8.1027 80.8914 12.2425H75.7611C75.6153 10.557 74.7117 9.64033 73.4291 9.64033C71.855 9.64033 70.8056 10.971 70.8056 13.6618C70.8056 16.3823 71.855 17.7425 73.4291 17.7425C74.7117 17.7425 75.6153 16.8258 75.7611 15.1108H80.8914C80.804 19.3097 77.9764 22.0005 73.3416 22.0005Z" fill="#00A896"/>
<path d="M63.6042 5.64877V9.69985H60.835V16.5601C60.835 17.3289 61.2139 17.6246 61.9718 17.6541C62.3799 17.6837 63.1961 17.6246 63.8082 17.5654V21.7348C63.2835 21.8235 62.4382 21.9418 61.1848 21.9418C57.337 21.9418 55.2965 20.4633 55.3256 17.1219V9.69985H53.2852V5.64877H55.3256V1.80469H60.835V5.64877H63.6042Z" fill="#00A896"/>
<path d="M44.25 22.0005C39.2071 22.0005 36.1172 18.8957 36.1172 13.721C36.1172 8.75323 39.2362 5.44141 44.1334 5.44141C48.8265 5.44141 51.9455 8.51667 51.9455 13.6618V14.9925H41.5682V15.1995C41.5682 16.8554 42.6176 18.0382 44.3666 18.0382C45.5617 18.0382 46.5237 17.5059 46.8735 16.5893H51.9164C51.3625 19.9011 48.5642 22.0005 44.25 22.0005ZM41.5682 11.8581H46.8443C46.8152 10.4091 45.7075 9.40377 44.25 9.40377C42.7779 9.40377 41.6119 10.4239 41.5682 11.8581Z" fill="#00A896"/>
<path d="M19.9102 21.7055V0.296875H25.4195V11.149H25.6235L29.617 5.64903H35.8259L30.4041 12.6867L36.0008 21.7055H29.6753L26.3231 15.9393L25.4195 17.063V21.7055H19.9102Z" fill="#00A896"/>
<path d="M11.9514 6.91936C11.8348 5.47043 10.902 4.64247 9.00729 4.64247C7.17085 4.64247 6.35466 5.35215 6.32551 6.35753C6.29636 7.45161 7.28745 8.07258 9.24049 8.48656L10.9895 8.90054C15.5368 9.87634 17.5482 12.1237 17.5773 15.4059C17.5482 19.6048 14.3708 21.9704 9.03644 21.9704C3.58543 21.9704 0.0582996 19.5457 0 14.2823H5.30526C5.39271 16.2634 6.76275 17.328 8.94899 17.328C10.8437 17.328 11.864 16.5296 11.8931 15.4059C11.864 14.371 11.0186 13.7796 8.65749 13.2473L6.52955 12.7742C2.82753 11.9462 0.553846 10.0833 0.553846 6.77151C0.524696 2.72043 4.05182 0 9.00729 0C14.0794 0 17.2567 2.75 17.2858 6.91936H11.9514Z" fill="#00A896"/>
</svg>
