<svg width="16" height="16" viewBox="0 0 16 16" fill="none" xmlns="http://www.w3.org/2000/svg">
<g id="ic-plus">
<path id="Vector (Stroke)" fill-rule="evenodd" clip-rule="evenodd" d="M3.5613 8C3.5613 7.63181 3.85978 7.33333 4.22797 7.33333L7.33255 7.33333L7.33255 4.22875C7.33255 3.86056 7.63102 3.56209 7.99921 3.56209C8.3674 3.56209 8.66588 3.86056 8.66588 4.22875L8.66588 7.33333H11.7704C12.1386 7.33333 12.4371 7.63181 12.4371 8C12.4371 8.36819 12.1386 8.66667 11.7704 8.66667H8.66588L8.66588 11.7712C8.66588 12.1394 8.3674 12.4379 7.99921 12.4379C7.63102 12.4379 7.33255 12.1394 7.33255 11.7712L7.33255 8.66667L4.22797 8.66667C3.85978 8.66667 3.5613 8.36819 3.5613 8Z" fill="#999999"/>
</g>
</svg>
