<svg width="40" height="40" viewBox="0 0 40 40" fill="none" xmlns="http://www.w3.org/2000/svg">
<path d="M20.0009 16.112C16.7848 16.112 14.1675 13.4948 14.1675 10.2786C14.1675 7.06253 16.7848 4.44531 20.0009 4.44531C23.217 4.44531 25.8342 7.06253 25.8342 10.2786C25.8342 13.4948 23.217 16.112 20.0009 16.112ZM34.159 16.9948C33.2698 16.2533 32.1122 15.9473 30.8975 16.1703L25.5542 17.4705C23.0873 17.919 21.2972 20.0644 21.2972 22.5727V32.6864L20.0009 32.9223L18.7046 32.6864V22.5727C18.7046 20.0644 16.9144 17.9203 14.5214 17.4873L9.02902 16.1548C7.88698 15.9448 6.72939 16.2546 5.84272 16.9948C4.95346 17.7362 4.44531 18.8238 4.44531 19.9801V32.7279L20.0009 35.5564L35.5564 32.7279V19.9801C35.5564 18.8238 35.047 17.7362 34.159 16.9948Z" fill="#00A896"/>
</svg>
