<svg width="40" height="40" viewBox="0 0 40 40" fill="none" xmlns="http://www.w3.org/2000/svg">
<path d="M22.5935 29.0749V35.5564H4.44531V29.0749C4.44531 26.9309 6.19013 25.1861 8.3342 25.1861H18.7046C20.8486 25.1861 22.5935 26.9309 22.5935 29.0749ZM13.5194 22.5935C16.379 22.5935 18.7046 20.2679 18.7046 17.4083C18.7046 14.5486 16.379 12.2231 13.5194 12.2231C10.6598 12.2231 8.3342 14.5486 8.3342 17.4083C8.3342 20.2679 10.6598 22.5935 13.5194 22.5935ZM35.5564 8.3342V27.7786H25.0551C24.4899 25.0059 22.1398 22.9007 19.2659 22.6505C20.5285 21.2673 21.2972 19.4279 21.2972 17.4083C21.2972 13.1123 17.8153 9.6305 13.5194 9.6305C12.6107 9.6305 11.7383 9.78735 10.9268 10.0738V8.3342C10.9268 6.19013 12.6716 4.44531 14.8157 4.44531H31.6675C33.8116 4.44531 35.5564 6.19013 35.5564 8.3342ZM32.9638 22.5935H26.4823V25.1861H32.9638V22.5935Z" fill="#00A896"/>
</svg>
