<svg width="16" height="16" viewBox="0 0 16 16" fill="none" xmlns="http://www.w3.org/2000/svg">
<g id="Menu / More_Horizontal">
<path id="Vector (Stroke)" fill-rule="evenodd" clip-rule="evenodd" d="M2.66797 8.0013C2.66797 7.26492 3.26492 6.66797 4.0013 6.66797C4.73768 6.66797 5.33464 7.26492 5.33464 8.0013C5.33464 8.73768 4.73768 9.33464 4.0013 9.33464C3.26492 9.33464 2.66797 8.73768 2.66797 8.0013ZM6.66797 8.0013C6.66797 7.26492 7.26492 6.66797 8.0013 6.66797C8.73768 6.66797 9.33463 7.26492 9.33463 8.0013C9.33463 8.73768 8.73768 9.33464 8.0013 9.33464C7.26492 9.33464 6.66797 8.73768 6.66797 8.0013ZM10.668 8.0013C10.668 7.26492 11.2649 6.66797 12.0013 6.66797C12.7377 6.66797 13.3346 7.26492 13.3346 8.0013C13.3346 8.73768 12.7377 9.33464 12.0013 9.33464C11.2649 9.33464 10.668 8.73768 10.668 8.0013Z" fill="#CCCCCC"/>
</g>
</svg>
